<svg xmlns="http://www.w3.org/2000/svg" viewBox="0 0 1600 1000" width="1600" height="1000"><defs><linearGradient id="g" x1="0" y1="0" x2="1" y2="1"><stop offset="0" stop-color="#5b78ff"/><stop offset="1" stop-color="#07080f"/></linearGradient></defs><rect width="1600" height="1000" fill="url(#g)"/><circle cx="1450" cy="120" r="260" fill="none" stroke="#eef0ff" stroke-opacity="0.15"/><rect x="100" y="90" width="1400" height="860" rx="28" fill="#0f1122"/><rect x="100" y="90" width="1400" height="64" rx="28" fill="#161a3a"/><rect x="100" y="126" width="1400" height="28" fill="#161a3a"/><circle cx="148" cy="122" r="9" fill="#ff6a6a"/><circle cx="178" cy="122" r="9" fill="#ffd36a"/><circle cx="208" cy="122" r="9" fill="#6aff9b"/><rect x="620" y="110" width="360" height="24" rx="12" fill="#0f1122"/><rect x="160" y="200" width="420" height="40" rx="8" fill="#eef0ff"/><rect x="1240" y="196" width="200" height="48" rx="24" fill="#5b78ff"/><rect x="160" y="280" width="1280" height="56" rx="12" fill="#161a3a"/><rect x="160" y="420" width="1280" height="2" rx="0" fill="#262b55"/><rect x="190" y="378" width="200" height="20" rx="8" fill="#eef0ff"/><rect x="500" y="378" width="300" height="20" rx="8" fill="#8d92b2"/><rect x="900" y="378" width="160" height="20" rx="8" fill="#8d92b2"/><rect x="1200" y="372" width="110" height="32" rx="16" fill="#5b78ff"/><rect x="160" y="484" width="1280" height="2" rx="0" fill="#262b55"/><rect x="190" y="442" width="200" height="20" rx="8" fill="#eef0ff"/><rect x="500" y="442" width="300" height="20" rx="8" fill="#8d92b2"/><rect x="900" y="442" width="160" height="20" rx="8" fill="#8d92b2"/><rect x="1200" y="436" width="110" height="32" rx="16" fill="#262b55"/><rect x="160" y="548" width="1280" height="2" rx="0" fill="#262b55"/><rect x="190" y="506" width="200" height="20" rx="8" fill="#5b78ff"/><rect x="500" y="506" width="300" height="20" rx="8" fill="#8d92b2"/><rect x="900" y="506" width="160" height="20" rx="8" fill="#8d92b2"/><rect x="1200" y="500" width="110" height="32" rx="16" fill="#262b55"/><rect x="160" y="612" width="1280" height="2" rx="0" fill="#262b55"/><rect x="190" y="570" width="200" height="20" rx="8" fill="#eef0ff"/><rect x="500" y="570" width="300" height="20" rx="8" fill="#8d92b2"/><rect x="900" y="570" width="160" height="20" rx="8" fill="#8d92b2"/><rect x="1200" y="564" width="110" height="32" rx="16" fill="#5b78ff"/><rect x="160" y="676" width="1280" height="2" rx="0" fill="#262b55"/><rect x="190" y="634" width="200" height="20" rx="8" fill="#eef0ff"/><rect x="500" y="634" width="300" height="20" rx="8" fill="#8d92b2"/><rect x="900" y="634" width="160" height="20" rx="8" fill="#8d92b2"/><rect x="1200" y="628" width="110" height="32" rx="16" fill="#262b55"/><rect x="160" y="740" width="1280" height="2" rx="0" fill="#262b55"/><rect x="190" y="698" width="200" height="20" rx="8" fill="#eef0ff"/><rect x="500" y="698" width="300" height="20" rx="8" fill="#8d92b2"/><rect x="900" y="698" width="160" height="20" rx="8" fill="#8d92b2"/><rect x="1200" y="692" width="110" height="32" rx="16" fill="#262b55"/><rect x="160" y="804" width="1280" height="2" rx="0" fill="#262b55"/><rect x="190" y="762" width="200" height="20" rx="8" fill="#eef0ff"/><rect x="500" y="762" width="300" height="20" rx="8" fill="#8d92b2"/><rect x="900" y="762" width="160" height="20" rx="8" fill="#8d92b2"/><rect x="1200" y="756" width="110" height="32" rx="16" fill="#5b78ff"/><rect x="160" y="868" width="1280" height="2" rx="0" fill="#262b55"/><rect x="190" y="826" width="200" height="20" rx="8" fill="#eef0ff"/><rect x="500" y="826" width="300" height="20" rx="8" fill="#8d92b2"/><rect x="900" y="826" width="160" height="20" rx="8" fill="#8d92b2"/><rect x="1200" y="820" width="110" height="32" rx="16" fill="#262b55"/><text x="1476" y="928" text-anchor="end" font-family="monospace" font-size="22" letter-spacing="3" fill="#8d92b2">PLACEHOLDER · TABLE</text></svg>
